<svg width="27" height="27" viewBox="0 0 27 27" fill="none" xmlns="http://www.w3.org/2000/svg">
<path d="M18.904 2.54041H7.94444C4.91803 2.54041 2.46465 4.99379 2.46465 8.0202V18.9798C2.46465 22.0062 4.91803 24.4596 7.94444 24.4596H18.904C21.9304 24.4596 24.3838 22.0062 24.3838 18.9798V8.0202C24.3838 4.99379 21.9304 2.54041 18.904 2.54041Z" stroke="#818181" stroke-width="1.34061" stroke-linecap="round" stroke-linejoin="round"/>
<path d="M17.8081 12.8095C17.9433 13.7216 17.7875 14.6532 17.3629 15.4716C16.9382 16.2901 16.2662 16.9538 15.4426 17.3684C14.619 17.7829 13.6856 17.9272 12.7752 17.7807C11.8648 17.6342 11.0238 17.2044 10.3718 16.5524C9.71981 15.9004 9.28999 15.0594 9.1435 14.149C8.997 13.2387 9.1413 12.3053 9.55586 11.4816C9.97042 10.658 10.6341 9.98606 11.4526 9.56137C12.2711 9.13669 13.2026 8.98089 14.1147 9.11615C15.0451 9.25411 15.9064 9.68765 16.5715 10.3527C17.2366 11.0178 17.6701 11.8791 17.8081 12.8095Z" stroke="#818181" stroke-width="2.19192" stroke-linecap="round" stroke-linejoin="round"/>
<path d="M19.452 7.47229H19.4637" stroke="#818181" stroke-width="2.19192" stroke-linecap="round" stroke-linejoin="round"/>
</svg>
