<svg width="27" height="27" viewBox="0 0 27 27" fill="none" xmlns="http://www.w3.org/2000/svg">
<path d="M18.2323 9.11621C19.9763 9.11621 21.6489 9.80901 22.8821 11.0422C24.1153 12.2754 24.8081 13.948 24.8081 15.692V23.3637H20.4242V15.692C20.4242 15.1106 20.1933 14.5531 19.7822 14.142C19.3712 13.731 18.8137 13.5 18.2323 13.5C17.651 13.5 17.0935 13.731 16.6824 14.142C16.2713 14.5531 16.0404 15.1106 16.0404 15.692V23.3637H11.6566V15.692C11.6566 13.948 12.3494 12.2754 13.5826 11.0422C14.8158 9.80901 16.4883 9.11621 18.2323 9.11621Z" stroke="#818181" stroke-width="1.34061" stroke-linecap="round" stroke-linejoin="round"/>
<path d="M7.27274 10.2122H2.8889V23.3637H7.27274V10.2122Z" stroke="#818181" stroke-width="1.34061" stroke-linecap="round" stroke-linejoin="round"/>
<path d="M5.08082 6.92424C6.29138 6.92424 7.27274 5.94289 7.27274 4.73232C7.27274 3.52176 6.29138 2.54041 5.08082 2.54041C3.87026 2.54041 2.8889 3.52176 2.8889 4.73232C2.8889 5.94289 3.87026 6.92424 5.08082 6.92424Z" stroke="#818181" stroke-width="1.34061" stroke-linecap="round" stroke-linejoin="round"/>
</svg>
