<svg width="27" height="27" viewBox="0 0 27 27" fill="none" xmlns="http://www.w3.org/2000/svg">
<g clip-path="url(#clip0_2280_443)">
<path d="M25.6313 3.63639C24.5818 4.37668 23.4198 4.94289 22.19 5.31321C21.5299 4.55426 20.6527 4.01635 19.677 3.7722C18.7013 3.52806 17.6741 3.58947 16.7344 3.94814C15.7947 4.3068 14.9878 4.9454 14.4229 5.77758C13.858 6.60976 13.5623 7.59536 13.5758 8.60108V9.69704C11.6498 9.74698 9.7413 9.31983 8.02035 8.45362C6.2994 7.58741 4.81939 6.30903 3.71212 4.73235C3.71212 4.73235 -0.671715 14.596 9.19192 18.9798C6.93482 20.5119 4.24603 21.2802 1.5202 21.1717C11.3838 26.6515 23.4394 21.1717 23.4394 8.5682C23.4384 8.26293 23.409 7.95841 23.3517 7.65856C24.4703 6.55547 25.2596 5.16274 25.6313 3.63639Z" stroke="#818181" stroke-width="1.34061" stroke-linecap="round" stroke-linejoin="round"/>
</g>
<defs>
<clipPath id="clip0_2280_443">
<rect width="26.303" height="26.303" fill="white" transform="translate(0.424194 0.348511)"/>
</clipPath>
</defs>
</svg>
